<svg  viewBox="0 0 16 15" fill="none" xmlns="http://www.w3.org/2000/svg">
<path d="M1 8.99875L12.86 8.99875L9.23 13.3587C9.06026 13.563 8.9786 13.8262 9.00298 14.0907C9.02736 14.3551 9.15578 14.599 9.36 14.7687C9.56422 14.9385 9.8275 15.0201 10.0919 14.9958C10.3563 14.9714 10.6003 14.843 10.77 14.6387L15.77 8.63875C15.8036 8.59102 15.8337 8.54089 15.86 8.48875C15.86 8.43875 15.86 8.40875 15.93 8.35875C15.9753 8.24409 15.9991 8.12204 16 7.99875C15.9991 7.87546 15.9753 7.75341 15.93 7.63875C15.93 7.58875 15.93 7.55875 15.86 7.50875C15.8337 7.45661 15.8036 7.40647 15.77 7.35875L10.77 1.35875C10.676 1.24587 10.5582 1.15509 10.4252 1.09286C10.2921 1.03064 10.1469 0.998509 10 0.998748C9.76635 0.998291 9.53991 1.07967 9.36 1.22875C9.25874 1.3127 9.17504 1.4158 9.11369 1.53215C9.05234 1.64849 9.01454 1.7758 9.00246 1.90678C8.99039 2.03775 9.00427 2.16982 9.04331 2.29543C9.08236 2.42103 9.1458 2.5377 9.23 2.63875L12.86 6.99875L1 6.99875C0.734783 6.99875 0.480429 7.1041 0.292892 7.29164C0.105356 7.47918 0 7.73353 0 7.99875C0 8.26396 0.105356 8.51832 0.292892 8.70585C0.480429 8.89339 0.734783 8.99875 1 8.99875Z" fill="#6BE3B3"/>
</svg>
