<svg width="23" height="18" viewBox="0 0 23 18" fill="none" xmlns="http://www.w3.org/2000/svg">
<path d="M0.801413 9.23168C0.73978 9.15213 0.683745 9.07997 0.634292 9.01639C0.683745 8.95281 0.73978 8.88065 0.801413 8.8011C1.05118 8.47873 1.39316 8.0346 1.76186 7.54778C2.49406 6.58102 3.34849 5.4239 3.78611 4.72413L3.78612 4.72414L3.788 4.72109C4.58872 3.42008 5.67208 2.39859 7.04653 1.65255L7.04654 1.65258L7.0516 1.64976C8.42035 0.886174 9.96336 0.5 11.6924 0.5C13.4214 0.5 14.9644 0.886174 16.3331 1.64976L16.3331 1.64979L16.3382 1.65255C17.7127 2.39859 18.796 3.42008 19.5967 4.72109L19.5986 4.72413C20.0259 5.40744 20.7735 6.55155 21.4114 7.5208C21.731 8.0063 22.024 8.44936 22.2371 8.77103L22.3999 9.01639L22.2371 9.26175C22.024 9.58343 21.731 10.0265 21.4114 10.512C20.7735 11.4812 20.0259 12.6253 19.5986 13.3087C18.798 14.5888 17.7135 15.6125 16.3356 16.3817C14.9666 17.1242 13.4226 17.5 11.6924 17.5C9.96212 17.5 8.41816 17.1242 7.04915 16.3817C5.67128 15.6125 4.5867 14.5888 3.78611 13.3087C3.34849 12.6089 2.49406 11.4518 1.76186 10.485C1.39316 9.99819 1.05118 9.55406 0.801413 9.23168ZM15.8721 11.4962L15.8722 11.4962L15.8756 11.4901C16.2983 10.7347 16.508 9.90693 16.508 9.01639C16.508 8.10788 16.3 7.27791 15.8739 6.53964C15.4522 5.78721 14.8666 5.18887 14.1236 4.75122C13.3945 4.30852 12.5798 4.09016 11.6924 4.09016C10.8035 4.09016 9.97956 4.30911 9.23092 4.74932L9.23089 4.74927L9.22451 4.75315C8.50314 5.19196 7.93077 5.79033 7.51082 6.53968C7.08471 7.27794 6.87673 8.1079 6.87673 9.01639C6.87673 9.90693 7.08645 10.7347 7.50911 11.4901L7.50907 11.4901L7.5126 11.4962C7.93366 12.2244 8.50611 12.8098 9.22451 13.2468L9.22448 13.2469L9.23092 13.2507C9.97956 13.6909 10.8035 13.9098 11.6924 13.9098C12.6007 13.9098 13.4281 13.6922 14.1602 13.2468C14.8786 12.8098 15.4511 12.2244 15.8721 11.4962Z" stroke="#79747E"/>
</svg>
