<svg  viewBox="0 0 39 30" fill="none" xmlns="http://www.w3.org/2000/svg">
<path d="M20.154 30C17.1431 30 14.4296 29.3443 12.0134 28.0328C9.59726 26.6849 7.68292 24.8816 6.27039 22.623C4.85786 20.3643 0.666748 15.0273 0.666748 15.0273C0.666748 15.0273 4.85786 9.69035 6.27039 7.43169C7.68292 5.13661 9.59726 3.33333 12.0134 2.02186C14.4296 0.673952 17.1431 0 20.154 0C23.1649 0 25.8785 0.673952 28.2946 2.02186C30.7108 3.33333 32.6251 5.13661 34.0377 7.43169C35.4502 9.69035 39.0001 15.0273 39.0001 15.0273C39.0001 15.0273 35.4502 20.3643 34.0377 22.623C32.6251 24.8816 30.7108 26.6849 28.2946 28.0328C25.8785 29.3443 23.1649 30 20.154 30ZM20.154 22.3497C21.5294 22.3497 22.756 22.0219 23.834 21.3661C24.912 20.7104 25.7669 19.8361 26.3989 18.7432C27.0308 17.6138 27.3467 16.3752 27.3467 15.0273C27.3467 13.643 27.0308 12.4044 26.3989 11.3115C25.7669 10.1821 24.8934 9.28962 23.7783 8.63388C22.7003 7.97814 21.4922 7.65027 20.154 7.65027C18.8158 7.65027 17.5892 7.97814 16.474 8.63388C15.396 9.28962 14.5411 10.1821 13.9092 11.3115C13.2772 12.4044 12.9613 13.643 12.9613 15.0273C12.9613 16.3752 13.2772 17.6138 13.9092 18.7432C14.5411 19.8361 15.396 20.7104 16.474 21.3661C17.5892 22.0219 18.8158 22.3497 20.154 22.3497Z" fill="#6BE3B3"/>
</svg>
