<svg width="45" height="54"  viewBox="0 0 45 54" fill="none" xmlns="http://www.w3.org/2000/svg">
<path d="M7.5 11.25V44.0685C7.5 46.071 9.51937 47.0767 10.7006 45.6592L22.5 31.5L34.2994 45.6592C35.4806 47.0767 37.5 46.0733 37.5 44.0685V11.25C37.5 10.0565 37.1049 8.91193 36.4017 8.06802C35.6984 7.22411 34.7446 6.75 33.75 6.75H11.25C10.2554 6.75 9.30161 7.22411 8.59835 8.06802C7.89509 8.91193 7.5 10.0565 7.5 11.25V11.25Z" fill="#060606" stroke="#F2B356" stroke-width="2" stroke-linecap="round" stroke-linejoin="round"/>
<path d="M21.892 13.5C22.0532 13.5 22.2079 13.5647 22.322 13.6797C22.436 13.7948 22.5001 13.9509 22.5001 14.1136V17.7955H26.1487C26.31 17.7955 26.4647 17.8601 26.5787 17.9752C26.6928 18.0903 26.7568 18.2463 26.7568 18.4091C26.7568 18.5718 26.6928 18.7279 26.5787 18.843C26.4647 18.9581 26.31 19.0227 26.1487 19.0227H22.5001V22.7045C22.5001 22.8673 22.436 23.0234 22.322 23.1385C22.2079 23.2535 22.0532 23.3182 21.892 23.3182C21.7307 23.3182 21.576 23.2535 21.462 23.1385C21.3479 23.0234 21.2839 22.8673 21.2839 22.7045V19.0227H17.6352C17.4739 19.0227 17.3193 18.9581 17.2052 18.843C17.0912 18.7279 17.0271 18.5718 17.0271 18.4091C17.0271 18.2463 17.0912 18.0903 17.2052 17.9752C17.3193 17.8601 17.4739 17.7955 17.6352 17.7955H21.2839V14.1136C21.2839 13.9509 21.3479 13.7948 21.462 13.6797C21.576 13.5647 21.7307 13.5 21.892 13.5V13.5Z" fill="#F2B356"/>
</svg>
