<svg width="40" height="40" viewBox="0 0 40 40" fill="none" xmlns="http://www.w3.org/2000/svg">
<rect width="40" height="40" fill="url(#paint0_radial_112_819)"/>
<path d="M2.73893 20.5903C2.56287 20.363 2.41427 20.1721 2.30141 20.0273C2.41427 19.8826 2.56287 19.6916 2.73893 19.4644C3.1547 18.9277 3.72389 18.1885 4.33746 17.3784C5.55939 15.765 6.97419 13.8483 7.69432 12.6968L7.69433 12.6968L7.69621 12.6938C9.06193 10.4747 10.911 8.73193 13.2519 7.4613L13.252 7.46132L13.257 7.45851C15.5922 6.15575 18.2207 5.5 21.154 5.5C24.0874 5.5 26.7158 6.15575 29.051 7.45851L29.051 7.45853L29.0561 7.4613C31.397 8.73193 33.2461 10.4747 34.6118 12.6938L34.6137 12.6968C35.3236 13.8318 36.5673 15.7355 37.6309 17.3514C38.1633 18.1602 38.6515 18.8984 39.0065 19.4343C39.1679 19.6778 39.3017 19.8796 39.3998 20.0273C39.3017 20.175 39.1679 20.3768 39.0065 20.6204C38.6515 21.1563 38.1633 21.8944 37.6309 22.7032C36.5673 24.3191 35.3236 26.2228 34.6137 27.3578C33.2481 29.5414 31.3979 31.2864 29.0536 32.5947C26.7181 33.8618 24.0887 34.5 21.154 34.5C18.2193 34.5 15.5899 33.8618 13.2544 32.5947C10.9101 31.2864 9.05989 29.5414 7.69432 27.3578C6.97419 26.2063 5.55939 24.2897 4.33746 22.6763C3.72389 21.8661 3.1547 21.1269 2.73893 20.5903ZM27.8317 23.9934L27.8318 23.9935L27.8352 23.9873C28.5106 22.7802 28.8467 21.457 28.8467 20.0273C28.8467 18.5651 28.5124 17.2397 27.8335 16.0643C27.159 14.8601 26.224 13.9047 25.0349 13.2048C23.8747 12.4998 22.5768 12.1503 21.154 12.1503C19.7299 12.1503 18.4153 12.5004 17.2206 13.2029L17.2206 13.2028L17.2142 13.2067C16.0616 13.9078 15.1473 14.8632 14.4746 16.0642C13.7957 17.2397 13.4613 18.5651 13.4613 20.0273C13.4613 21.457 13.7974 22.7802 14.4728 23.9873L14.4728 23.9873L14.4763 23.9934C15.1501 25.1588 16.0646 26.094 17.2142 26.7933L17.2141 26.7933L17.2206 26.7971C18.4153 27.4996 19.7299 27.8497 21.154 27.8497C22.6125 27.8497 23.9306 27.5009 25.0939 26.7933C26.2435 26.094 27.1579 25.1588 27.8317 23.9934Z" fill="#060606" stroke="#6BE3B3"/>
<line x1="5.94576" y1="35.3579" x2="36.3681" y2="4.93551" stroke="#6BE3B3"/>
<defs>
<radialGradient id="paint0_radial_112_819" cx="0" cy="0" r="1" gradientUnits="userSpaceOnUse" gradientTransform="translate(20 20) rotate(90) scale(20)">
<stop offset="0.3125" stop-color="#060606"/>
<stop offset="1" stop-color="#060606" stop-opacity="0"/>
</radialGradient>
</defs>
</svg>
