<svg  viewBox="0 0 154 48" fill="none" xmlns="http://www.w3.org/2000/svg">
<path d="M4.50439 37.917V11.142H12.7824L19.3819 23.7645L25.9814 11.142H34.2593V37.917H28.0795V19.6718L19.3056 36.0045L10.5317 19.5952V37.917H4.50439ZM38.3977 37.917V17.6827H44.5776V37.917H38.3977ZM41.4876 15.8085C40.5467 15.8085 39.7456 15.477 39.0844 14.814C38.4231 14.151 38.0925 13.3477 38.0925 12.4042C38.0925 11.4607 38.4231 10.6575 39.0844 9.9945C39.7456 9.3315 40.5467 9 41.4876 9C42.4286 9 43.2297 9.3315 43.8909 9.9945C44.5521 10.6575 44.8828 11.4607 44.8828 12.4042C44.8828 13.3477 44.5521 14.151 43.8909 14.814C43.2297 15.477 42.4286 15.8085 41.4876 15.8085ZM48.3816 37.917V17.6827H54.5615V19.71C55.2227 18.894 55.9983 18.282 56.8884 17.874C57.7786 17.4405 58.7704 17.2238 59.8639 17.2238C60.9575 17.2493 61.7332 17.415 62.1909 17.721V23.1143C61.784 22.9102 61.3263 22.7572 60.8176 22.6552C60.309 22.5532 59.7876 22.5023 59.2536 22.5023C58.2872 22.5023 57.3844 22.7318 56.5451 23.1908C55.7313 23.6243 55.0701 24.249 54.5615 25.065V37.917H48.3816ZM70.9219 38.2613C69.4977 38.2613 68.2262 37.9935 67.1072 37.458C66.0136 36.9225 65.1489 36.183 64.5131 35.2395C63.9028 34.296 63.5976 33.2122 63.5976 31.9883C63.5976 30.0503 64.3224 28.5585 65.772 27.513C67.247 26.442 69.2943 25.9065 71.9137 25.9065C73.4905 25.9065 75.0164 26.0977 76.4914 26.4802V25.4858C76.4914 24.4658 76.1608 23.7135 75.4996 23.229C74.8638 22.719 73.9101 22.464 72.6385 22.464C71.8502 22.464 70.9601 22.5915 69.9682 22.8465C69.0018 23.1015 67.8574 23.5095 66.535 24.0705L64.3224 19.5188C65.9755 18.7793 67.5649 18.231 69.0908 17.874C70.6422 17.4915 72.1935 17.3003 73.7448 17.3003C76.5423 17.3003 78.7167 17.976 80.268 19.3275C81.8194 20.6535 82.5951 22.5278 82.5951 24.9503V37.917H76.4914V36.693C75.6776 37.254 74.8129 37.662 73.8974 37.917C73.0073 38.1465 72.0155 38.2613 70.9219 38.2613ZM69.4723 31.8735C69.4723 32.511 69.7521 33.0082 70.3116 33.3652C70.871 33.7222 71.6467 33.9007 72.6385 33.9007C73.3761 33.9007 74.0627 33.8243 74.6985 33.6713C75.3597 33.5183 75.9574 33.276 76.4914 32.9445V30.3435C75.9065 30.1905 75.3089 30.0757 74.6985 29.9992C74.0881 29.9227 73.4651 29.8845 72.8293 29.8845C71.7612 29.8845 70.9346 30.063 70.3497 30.42C69.7648 30.7515 69.4723 31.236 69.4723 31.8735Z" fill="#6BE3B3"/>
<path d="M91.6213 38.2343L83 18H89.7139L94.7112 30.393L99.7085 18H106.27L97.6486 38.2343H91.6213Z" fill="#F2B356"/>
<path d="M140.312 38.9227C138.404 38.9227 136.637 38.706 135.009 38.2725C133.381 37.8135 131.97 37.1505 130.775 36.2835L133.712 32.1143C134.984 32.8792 136.141 33.4402 137.183 33.7972C138.226 34.1287 139.256 34.2945 140.273 34.2945C141.291 34.2945 142.092 34.1542 142.677 33.8737C143.287 33.5677 143.592 33.1725 143.592 32.688C143.592 32.3055 143.427 31.9995 143.096 31.77C142.766 31.515 142.244 31.3365 141.532 31.2345L137.527 30.6225C135.518 30.3165 133.979 29.6535 132.911 28.6335C131.868 27.588 131.347 26.2365 131.347 24.579C131.347 23.202 131.69 22.029 132.377 21.06C133.089 20.0655 134.093 19.3132 135.391 18.8032C136.688 18.2677 138.239 18 140.044 18C141.52 18 142.982 18.204 144.431 18.612C145.881 19.02 147.229 19.632 148.475 20.448L145.538 24.426C144.444 23.7885 143.401 23.3295 142.41 23.049C141.418 22.743 140.426 22.59 139.434 22.59C138.646 22.59 138.01 22.7302 137.527 23.0107C137.044 23.2657 136.802 23.61 136.802 24.0435C136.802 24.4515 136.98 24.783 137.336 25.038C137.692 25.2675 138.302 25.446 139.167 25.5735L143.173 26.1855C145.156 26.466 146.682 27.129 147.75 28.1745C148.844 29.1945 149.391 30.495 149.391 32.076C149.391 33.402 148.996 34.575 148.208 35.595C147.42 36.615 146.339 37.431 144.965 38.043C143.618 38.6295 142.066 38.9227 140.312 38.9227Z" fill="#F2B356"/>
<path d="M117.333 38.9993C115.273 38.9993 113.416 38.5402 111.763 37.6222C110.11 36.6787 108.8 35.4165 107.834 33.8355C106.867 32.2545 104 28.5188 104 28.5188C104 28.5188 106.867 24.783 107.834 23.202C108.8 21.5955 110.11 20.3332 111.763 19.4152C113.416 18.4717 115.273 18 117.333 18C119.392 18 121.249 18.4717 122.902 19.4152C124.555 20.3332 125.865 21.5955 126.831 23.202C127.798 24.783 130.226 28.5188 130.226 28.5188C130.226 28.5188 127.798 32.2545 126.831 33.8355C125.865 35.4165 124.555 36.6787 122.902 37.6222C121.249 38.5402 119.392 38.9993 117.333 38.9993ZM117.333 33.6442C118.273 33.6442 119.113 33.4148 119.85 32.9558C120.588 32.4968 121.173 31.8848 121.605 31.1198C122.037 30.3293 122.254 29.4622 122.254 28.5188C122.254 27.5498 122.037 26.6828 121.605 25.9178C121.173 25.1273 120.575 24.5025 119.812 24.0435C119.075 23.5845 118.248 23.355 117.333 23.355C116.417 23.355 115.578 23.5845 114.815 24.0435C114.077 24.5025 113.492 25.1273 113.06 25.9178C112.628 26.6828 112.411 27.5498 112.411 28.5188C112.411 29.4622 112.628 30.3293 113.06 31.1198C113.492 31.8848 114.077 32.4968 114.815 32.9558C115.578 33.4148 116.417 33.6442 117.333 33.6442Z" fill="#6BE3B3"/>
</svg>
