<svg   viewBox="0 0 190 64" fill="none" xmlns="http://www.w3.org/2000/svg">
<path d="M3.15119 49V15.4H13.5672L21.8712 31.24L30.1752 15.4H40.5912V49H32.8152V26.104L21.7752 46.6L10.7352 26.008V49H3.15119ZM45.7984 49V23.608H53.5744V49H45.7984ZM49.6864 21.256C48.5024 21.256 47.4944 20.84 46.6624 20.008C45.8304 19.176 45.4144 18.168 45.4144 16.984C45.4144 15.8 45.8304 14.792 46.6624 13.96C47.4944 13.128 48.5024 12.712 49.6864 12.712C50.8704 12.712 51.8784 13.128 52.7104 13.96C53.5424 14.792 53.9584 15.8 53.9584 16.984C53.9584 18.168 53.5424 19.176 52.7104 20.008C51.8784 20.84 50.8704 21.256 49.6864 21.256ZM58.3609 49V23.608H66.1369V26.152C66.9689 25.128 67.9449 24.36 69.0649 23.848C70.1849 23.304 71.4329 23.032 72.8089 23.032C74.1849 23.064 75.1609 23.272 75.7369 23.656V30.424C75.2249 30.168 74.6489 29.976 74.0089 29.848C73.3689 29.72 72.7129 29.656 72.0409 29.656C70.8249 29.656 69.6889 29.944 68.6329 30.52C67.6089 31.064 66.7769 31.848 66.1369 32.872V49H58.3609ZM86.7229 49.432C84.9309 49.432 83.3309 49.096 81.9229 48.424C80.5469 47.752 79.4589 46.824 78.6589 45.64C77.8909 44.456 77.5069 43.096 77.5069 41.56C77.5069 39.128 78.4189 37.256 80.2429 35.944C82.0989 34.6 84.6749 33.928 87.9709 33.928C89.9549 33.928 91.8749 34.168 93.7309 34.648V33.4C93.7309 32.12 93.3149 31.176 92.4829 30.568C91.6829 29.928 90.4829 29.608 88.8829 29.608C87.8909 29.608 86.7709 29.768 85.5229 30.088C84.3069 30.408 82.8669 30.92 81.2029 31.624L78.4189 25.912C80.4989 24.984 82.4989 24.296 84.4189 23.848C86.3709 23.368 88.3229 23.128 90.2749 23.128C93.7949 23.128 96.5309 23.976 98.4829 25.672C100.435 27.336 101.411 29.688 101.411 32.728V49H93.7309V47.464C92.7069 48.168 91.6189 48.68 90.4669 49C89.3469 49.288 88.0989 49.432 86.7229 49.432ZM84.8989 41.416C84.8989 42.216 85.2509 42.84 85.9549 43.288C86.6589 43.736 87.6349 43.96 88.8829 43.96C89.8109 43.96 90.6749 43.864 91.4749 43.672C92.3069 43.48 93.0589 43.176 93.7309 42.76V39.496C92.9949 39.304 92.2429 39.16 91.4749 39.064C90.7069 38.968 89.9229 38.92 89.1229 38.92C87.7789 38.92 86.7389 39.144 86.0029 39.592C85.2669 40.008 84.8989 40.616 84.8989 41.416Z" fill="#F2B356"/>
<path d="M177.721 49.48C175.321 49.48 173.097 49.208 171.049 48.664C169.001 48.088 167.225 47.256 165.721 46.168L169.417 40.936C171.017 41.896 172.473 42.6 173.785 43.048C175.097 43.464 176.393 43.672 177.673 43.672C178.953 43.672 179.961 43.496 180.697 43.144C181.465 42.76 181.849 42.264 181.849 41.656C181.849 41.176 181.641 40.792 181.225 40.504C180.809 40.184 180.153 39.96 179.257 39.832L174.217 39.064C171.689 38.68 169.753 37.848 168.409 36.568C167.097 35.256 166.441 33.56 166.441 31.48C166.441 29.752 166.873 28.28 167.737 27.064C168.633 25.816 169.897 24.872 171.529 24.232C173.161 23.56 175.113 23.224 177.385 23.224C179.241 23.224 181.081 23.48 182.905 23.992C184.729 24.504 186.425 25.272 187.993 26.296L184.297 31.288C182.921 30.488 181.609 29.912 180.361 29.56C179.113 29.176 177.865 28.984 176.617 28.984C175.625 28.984 174.825 29.16 174.217 29.512C173.609 29.832 173.305 30.264 173.305 30.808C173.305 31.32 173.529 31.736 173.977 32.056C174.425 32.344 175.193 32.568 176.281 32.728L181.321 33.496C183.817 33.848 185.737 34.68 187.081 35.992C188.457 37.272 189.145 38.904 189.145 40.888C189.145 42.552 188.649 44.024 187.657 45.304C186.665 46.584 185.305 47.608 183.577 48.376C181.881 49.112 179.929 49.48 177.721 49.48Z" fill="#D3A7FF"/>
<path d="M115.197 49L104.349 23.608H112.797L119.085 39.16L125.373 23.608H133.629L122.781 49H115.197Z" fill="#D3A7FF"/>
<path d="M148.776 49.352C146.184 49.352 143.848 48.776 141.768 47.624C139.688 46.44 138.04 44.856 136.824 42.872C135.608 40.888 132 36.2 132 36.2C132 36.2 135.608 31.512 136.824 29.528C138.04 27.512 139.688 25.928 141.768 24.776C143.848 23.592 146.184 23 148.776 23C151.368 23 153.704 23.592 155.784 24.776C157.864 25.928 159.512 27.512 160.728 29.528C161.944 31.512 165 36.2 165 36.2C165 36.2 161.944 40.888 160.728 42.872C159.512 44.856 157.864 46.44 155.784 47.624C153.704 48.776 151.368 49.352 148.776 49.352ZM148.776 42.632C149.96 42.632 151.016 42.344 151.944 41.768C152.872 41.192 153.608 40.424 154.152 39.464C154.696 38.472 154.968 37.384 154.968 36.2C154.968 34.984 154.696 33.896 154.152 32.936C153.608 31.944 152.856 31.16 151.896 30.584C150.968 30.008 149.928 29.72 148.776 29.72C147.624 29.72 146.568 30.008 145.608 30.584C144.68 31.16 143.944 31.944 143.4 32.936C142.856 33.896 142.584 34.984 142.584 36.2C142.584 37.384 142.856 38.472 143.4 39.464C143.944 40.424 144.68 41.192 145.608 41.768C146.568 42.344 147.624 42.632 148.776 42.632Z" fill="#F2B356"/>
</svg>
