<svg  viewBox="0 0 152 48" fill="none" xmlns="http://www.w3.org/2000/svg">
<path d="M4.46289 37.917V11.142H12.6647L19.2035 23.7645L25.7422 11.142H33.944V37.917H27.821V19.6718L19.1279 36.0045L10.4347 19.5953V37.917H4.46289ZM38.0443 37.917V17.6828H44.1673V37.917H38.0443ZM41.1058 15.8085C40.1735 15.8085 39.3798 15.477 38.7246 14.814C38.0695 14.151 37.7419 13.3477 37.7419 12.4042C37.7419 11.4607 38.0695 10.6575 38.7246 9.9945C39.3798 9.3315 40.1735 9 41.1058 9C42.0381 9 42.8318 9.3315 43.487 9.9945C44.1421 10.6575 44.4697 11.4607 44.4697 12.4042C44.4697 13.3477 44.1421 14.151 43.487 14.814C42.8318 15.477 42.0381 15.8085 41.1058 15.8085ZM47.9363 37.917V17.6828H54.0593V19.71C54.7144 18.894 55.483 18.282 56.3649 17.874C57.2468 17.4405 58.2295 17.2238 59.313 17.2238C60.3965 17.2493 61.165 17.415 61.6186 17.721V23.1143C61.2154 22.9103 60.7619 22.7573 60.2579 22.6553C59.754 22.5533 59.2374 22.5023 58.7083 22.5023C57.7508 22.5023 56.8562 22.7318 56.0247 23.1908C55.2184 23.6243 54.5633 24.249 54.0593 25.065V37.917H47.9363ZM70.2692 38.2613C68.8581 38.2613 67.5983 37.9935 66.4896 37.458C65.4061 36.9225 64.5494 36.183 63.9194 35.2395C63.3147 34.296 63.0123 33.2123 63.0123 31.9883C63.0123 30.0503 63.7304 28.5585 65.1667 27.513C66.6282 26.442 68.6566 25.9065 71.2519 25.9065C72.8142 25.9065 74.326 26.0978 75.7875 26.4803V25.4858C75.7875 24.4658 75.4599 23.7135 74.8048 23.229C74.1748 22.719 73.2299 22.464 71.97 22.464C71.1889 22.464 70.307 22.5915 69.3243 22.8465C68.3668 23.1015 67.2329 23.5095 65.9226 24.0705L63.7304 19.5188C65.3683 18.7793 66.9431 18.231 68.455 17.874C69.992 17.4915 71.5291 17.3003 73.0661 17.3003C75.8379 17.3003 77.9923 17.976 79.5293 19.3275C81.0664 20.6535 81.835 22.5278 81.835 24.9503V37.917H75.7875V36.693C74.9812 37.254 74.1244 37.662 73.2173 37.917C72.3354 38.1465 71.3527 38.2613 70.2692 38.2613ZM68.8329 31.8735C68.8329 32.511 69.1101 33.0083 69.6645 33.3653C70.2188 33.7223 70.9873 33.9008 71.97 33.9008C72.7008 33.9008 73.3811 33.8243 74.011 33.6713C74.6662 33.5183 75.2583 33.276 75.7875 32.9445V30.3435C75.2079 30.1905 74.6158 30.0758 74.011 29.9993C73.4063 29.9228 72.789 29.8845 72.159 29.8845C71.1007 29.8845 70.2818 30.063 69.7023 30.42C69.1227 30.7515 68.8329 31.236 68.8329 31.8735Z" fill="#969696"/>
<path d="M90.7781 38.2343L82.2361 18H88.8882L93.8396 30.393L98.7909 18H105.292L96.7499 38.2343H90.7781Z" fill="#575757"/>
<path d="M139.02 37.9227C137.13 37.9227 135.379 37.706 133.766 37.2725C132.154 36.8135 130.755 36.1505 129.571 35.2835L132.481 31.1142C133.741 31.8792 134.888 32.4402 135.921 32.7972C136.954 33.1287 137.974 33.2945 138.982 33.2945C139.99 33.2945 140.784 33.1543 141.364 32.8738C141.968 32.5678 142.271 32.1725 142.271 31.688C142.271 31.3055 142.107 30.9995 141.779 30.77C141.452 30.515 140.935 30.3365 140.23 30.2345L136.261 29.6225C134.27 29.3165 132.746 28.6535 131.688 27.6335C130.655 26.588 130.138 25.2365 130.138 23.579C130.138 22.202 130.478 21.029 131.158 20.06C131.864 19.0655 132.859 18.3132 134.144 17.8032C135.429 17.2677 136.967 17 138.756 17C140.217 17 141.666 17.204 143.102 17.612C144.538 18.02 145.874 18.632 147.109 19.448L144.198 23.426C143.115 22.7885 142.082 22.3295 141.099 22.049C140.116 21.743 139.134 21.59 138.151 21.59C137.37 21.59 136.74 21.7302 136.261 22.0107C135.782 22.2657 135.543 22.61 135.543 23.0435C135.543 23.4515 135.719 23.783 136.072 24.038C136.425 24.2675 137.03 24.446 137.886 24.5735L141.855 25.1855C143.82 25.466 145.332 26.129 146.39 27.1745C147.474 28.1945 148.016 29.495 148.016 31.076C148.016 32.402 147.625 33.575 146.844 34.595C146.063 35.615 144.992 36.431 143.631 37.043C142.296 37.6295 140.759 37.9227 139.02 37.9227Z" fill="#575757"/>
<path d="M116.228 37.9993C114.187 37.9993 112.348 37.5403 110.71 36.6223C109.072 35.6788 107.775 34.4165 106.817 32.8355C105.86 31.2545 103.019 27.5188 103.019 27.5188C103.019 27.5188 105.86 23.783 106.817 22.202C107.775 20.5955 109.072 19.3332 110.71 18.4152C112.348 17.4717 114.187 17 116.228 17C118.269 17 120.109 17.4717 121.747 18.4152C123.384 19.3332 124.682 20.5955 125.64 22.202C126.597 23.783 129.004 27.5188 129.004 27.5188C129.004 27.5188 126.597 31.2545 125.64 32.8355C124.682 34.4165 123.384 35.6788 121.747 36.6223C120.109 37.5403 118.269 37.9993 116.228 37.9993ZM116.228 32.6443C117.161 32.6443 117.992 32.4148 118.723 31.9558C119.454 31.4968 120.033 30.8848 120.462 30.1198C120.89 29.3293 121.104 28.4623 121.104 27.5188C121.104 26.5498 120.89 25.6828 120.462 24.9178C120.033 24.1273 119.441 23.5025 118.685 23.0435C117.954 22.5845 117.135 22.355 116.228 22.355C115.321 22.355 114.49 22.5845 113.734 23.0435C113.003 23.5025 112.424 24.1273 111.995 24.9178C111.567 25.6828 111.353 26.5498 111.353 27.5188C111.353 28.4623 111.567 29.3293 111.995 30.1198C112.424 30.8848 113.003 31.4968 113.734 31.9558C114.49 32.4148 115.321 32.6443 116.228 32.6443Z" fill="#969696"/>
</svg>
